<svg width="98" height="96" xmlns="http://www.w3.org/2000/svg" fill="red">
  <path id="cat" fill="red"
    d="m 22 77 c 2.1 0 3.3 -1.1 3.3 -2.4 c 0 -1.1 -0.1 -5.1 -0.1 -9.1 c -13.6 2.9 -16.4 -5.9 -16.4 -5.9 c -2.2 -5.7 -5.4 -7.2 -5.4 -7.2 c -4.4 -3 0.3 -3 0.3 -3 c 4.9 0.3 7.5 5.1 7.5 5.1 c 4.4 7.5 11.4 5.4 14.2 4.1 c 0.4 -3.2 1.7 -5.4 3.1 -6.6 c -10.8 -1.1 -22.2 -5.4 -22.2 -24.3 c 0 -5.4 1.9 -9.8 5 -13.2 c -0.5 -1.2 -2.2 -6.3 0.5 -13 c 0 0 4.1 -1.3 13.4 5.1 a 47 47 0 0 1 12.2 -1.6 c 4.1 0 8.3 0.6 12.2 1.6 c 9.3 -6.4 13.4 -5.1 13.4 -5.1 c 2.7 6.8 1 11.8 0.5 13 c 3.2 3.4 5 7.8 5 13.2 c 0 18.9 -11.4 23.1 -22.3 24.3 c 1.8 1.5 3.3 4.5 3.3 9.1 c 0 6.6 -0.1 11.9 -0.1 13.5 c 0 1.3 0.6 2.4 3.3 2.4 z" />
</svg>